<svg id="Layer_1" data-name="Layer 1" xmlns="http://www.w3.org/2000/svg" viewBox="0 0 328.15 345.46"><defs><style>.cls-1,.cls-3{fill:none;}.cls-1,.cls-2,.cls-3{stroke:#121212;stroke-miterlimit:10;}.cls-1,.cls-2{stroke-width:3px;}.cls-2{fill:#fff40a;}.cls-3{stroke-width:5px;}</style></defs><path class="cls-1" d="M723.48,310.35" transform="translate(-185.2 -198.46)"/><path class="cls-2" d="M744.33,248.19" transform="translate(-185.2 -198.46)"/><path class="cls-3" d="M337,465.62a104,104,0,0,1,23.83-98.52,166.92,166.92,0,0,0-51.8-37.21" transform="translate(-185.2 -198.46)"/><path class="cls-3" d="M230.25,314.44" transform="translate(-185.2 -198.46)"/><path class="cls-3" d="M262.14,249.76q2.14-2.47,4.41-4.85c.41.54.84,1.06,1.28,1.57a37.74,37.74,0,0,0,2.71,2.8c.41.4.84.78,1.28,1.14a2.25,2.25,0,0,0,.24.21c.25.21.52.43.79.63a9.58,9.58,0,0,0,.95.73c.23.18.46.34.69.51.74.54,1.52,1,2.31,1.51l.78.46a36.94,36.94,0,0,0,3.78,1.88l.84.33c.84.35,1.7.65,2.57.92l1.46.43,1,.27c.82.19,1.64.35,2.5.51l1.76.25.54.05c.58.06,1.19.11,1.79.14s1.39.07,2.09.07a31.07,31.07,0,0,0,3.5-.18l.78-.08a35,35,0,0,0,4.41-.77c.42-.1.85-.21,1.28-.34a29.88,29.88,0,0,0,3.12-1,23.83,23.83,0,0,0,2.6-1.1c.25-.11.51-.23.76-.36a22.27,22.27,0,0,0,2.3-1.24c.27-.15.54-.31.79-.47s.7-.43,1-.65.68-.46,1-.71.95-.69,1.41-1l.9-.73c.62-.51,1.22-1,1.81-1.62.25-.23.5-.49.76-.74s.54-.54.77-.81.43-.46.64-.7c.41-.46.81-.93,1.19-1.41s1-1.28,1.46-1.95c.25-.35.49-.69.71-1.06a28.85,28.85,0,0,0,1.5-2.52c.24-.43.46-.87.69-1.31s.55-1.16.79-1.75a1.56,1.56,0,0,0,.14-.33.82.82,0,0,0,.1-.24,11.15,11.15,0,0,0,.52-1.31,38,38,0,0,0,1.14-3.71c.14-.52.27-1,.36-1.59s.19-1,.27-1.49c0-.2.07-.42.1-.63a29.54,29.54,0,0,0,.32-3.14c0-.2,0-.39,0-.6,0-.54,0-1.09,0-1.65a36.92,36.92,0,0,0-3.43-15.58,141.73,141.73,0,0,1,105,261.77,139.13,139.13,0,0,1-28.69,11.22A142,142,0,0,1,343.14,482" transform="translate(-185.2 -198.46)"/><path class="cls-3" d="M337,465.62a104,104,0,0,1,23.83-98.52,166.92,166.92,0,0,0-51.8-37.21" transform="translate(-185.2 -198.46)"/><path class="cls-3" d="M231.27,315" transform="translate(-185.2 -198.46)"/><path class="cls-3" d="M337,465.62a104,104,0,0,1,23.83-98.52,165.86,165.86,0,0,1,45.24,112.38c0,.57,0,1.15,0,1.72a165.74,165.74,0,0,1-8.46,52.49A104.27,104.27,0,0,1,343.14,482" transform="translate(-185.2 -198.46)"/><path class="cls-3" d="M488.62,527.7A103.81,103.81,0,0,1,343.14,482a102.78,102.78,0,0,1-9.93-44.36,103.78,103.78,0,0,1,176.15-74.42,141.69,141.69,0,0,1-74.58,105.07A113.71,113.71,0,0,1,488.62,527.7Z" transform="translate(-185.2 -198.46)"/><path class="cls-3" d="M337,465.62a112.61,112.61,0,0,1,46.11-9.78,114.65,114.65,0,0,1,21.35,2,112.12,112.12,0,0,1,30.3,10.41,113.71,113.71,0,0,1,53.84,59.44A103.81,103.81,0,0,1,343.14,482" transform="translate(-185.2 -198.46)"/><circle class="cls-3" cx="197.93" cy="63.23" r="15.06"/><ellipse class="cls-3" cx="100.46" cy="71.95" rx="7.92" ry="1.58"/><line class="cls-3" x1="4.57" y1="93.34" x2="123.44" y2="93.34"/><path class="cls-3" d="M305.93,258c-.43.13-.86.24-1.28.33a33.29,33.29,0,0,1-4.41.78l-.78.08a31.07,31.07,0,0,1-3.5.18c-.7,0-1.39,0-2.09-.07s-1.21-.08-1.79-.14l-.54-.05-1.76-.25c-.86-.16-1.68-.32-2.5-.51l-1-.27-1.46-.43c-.87-.27-1.73-.57-2.57-.92l-.84-.33a36.94,36.94,0,0,1-3.78-1.88l-.78-.46c-.79-.48-1.57-1-2.31-1.51-.23-.17-.46-.33-.69-.51a9.58,9.58,0,0,1-.95-.73c-.27-.2-.54-.42-.79-.63a2.25,2.25,0,0,1-.24-.21c-.44-.36-.87-.74-1.28-1.14a37.74,37.74,0,0,1-2.71-2.8l-5.69,3.28L249.62,257,190.19,291.3l.87.5,39.19,22.64,1,.57,77.78,14.88V256.94A29.88,29.88,0,0,1,305.93,258Z" transform="translate(-185.2 -198.46)"/></svg>